[IMG]http://www.shotpix.com/images/46045961436654719083.jpg[/IMG]

General
Complete name                            : Foster The People - Pumped Up Kicks [Music Video] 720p [Sbyky].mp4
Format                                   : MPEG-4
Format profile                           : Base Media / Version 2
Codec ID                                 : mp42
File size                                : 57.0 MiB
Duration                                 : 4mn 15s
Overall bit rate mode                    : Variable
Overall bit rate                         : 1 869 Kbps
Encoded date                             : UTC 2011-02-04 05:16:43
Tagged date                              : UTC 2011-02-04 05:16:43

Video
ID                                       : 1
Format                                   : AVC
Format/Info                              : Advanced Video Codec
Format profile                           : High@L3.1
Format settings, CABAC                   : Yes
Format settings, ReFrames                : 1 frame
Codec ID                                 : avc1
Codec ID/Info                            : Advanced Video Coding
Duration                                 : 4mn 15s
Bit rate                                 : 1 736 Kbps
Maximum bit rate                         : 5 044 Kbps
Width                                    : 1 280 pixels
Height                                   : 720 pixels
Display aspect ratio                     : 16:9
Frame rate mode                          : Variable
Frame rate                               : 23.976 fps
Minimum frame rate                       : 17.241 fps
Maximum frame rate                       : 24.390 fps
Color space                              : YUV
Chroma subsampling                       : 4:2:0
Bit depth                                : 8 bits
Scan type                                : Progressive
Bits/(Pixel*Frame)                       : 0.079
Stream size                              : 52.9 MiB (93%)
Tagged date                              : UTC 2011-02-04 05:16:56

Audio
ID                                       : 2
Format                                   : AAC
Format/Info                              : Advanced Audio Codec
Format profile                           : LC
Codec ID                                 : 40
Duration                                 : 4mn 15s
Bit rate mode                            : Variable
Bit rate                                 : 128 Kbps
Maximum bit rate                         : 154 Kbps
Channel(s)                               : 2 channels
Channel positions                        : Front: L R
Sampling rate                            : 44.1 KHz
Compression mode                         : Lossy
Stream size                              : 3.90 MiB (7%)
Title                                    : (C) 2007 Google Inc. v08.13.2007.
Encoded date                             : UTC 2011-02-04 05:16:50
Tagged date                              : UTC 2011-02-04 05:16:56

Shared By Sbyky
[IMG]http://www.shotpix.com/images/76014917432015785852.gif[/IMG]
[IMG]http://www.shotpix.com/images/54100788659511547411.gif[/IMG]